<?xml version="1.0" encoding="UTF-8" standalone="no"?>
<!-- Created with Inkscape (http://www.inkscape.org/) -->
<svg id="svg2" xmlns="http://www.w3.org/2000/svg" xml:space="preserve" height="125.72" width="400" version="1.0" viewBox="0 0 242.5 242.5"><path id="Franke" d="m-264.51 0.000003675v242.5h251.88v-242.5l-251.88 0.000003675zm12.78 68.667h104.65v32.893h-27.01v-11.757h-24.54v21.547h18.56v20.83h-18.56v21.14h10.93v21.23h-64.03v-21.23h8.56v-63.517h-8.56v-21.136zm109.29 0h63.411c20.743 0 35.527 2.355 44.438 7.114 8.88 4.788 13.3 12.62 13.3 23.611 0 5.708-1.342 10.728-4.124 14.848-2.753 4.12-6.929 7.48-12.579 10.21l17.322 28.87h6.701v21.23h-42.066l-22.992-43.71h-13.403v22.48h11.65v21.23h-61.658v-21.23h8.87v-63.517h-8.87v-21.136zm52.07 21.033c-0.87 0.05-1.555 0.103-2.062 0.103v22.477h3.608c6.969 0 12.102-0.98 15.363-2.78 3.26-1.81 4.845-4.59 4.845-8.46 0-3.788-1.66-6.646-4.949-8.556-3.288-1.885-8.261-2.784-14.95-2.784-0.391 0-1.011-0.053-1.855 0zm87.019-89.7v242.5h251.88v-242.5l-251.88 0.000003675zm23.714 68.667h79.081v21.033h-8.764l22.37 63.62h6.29v21.23h-56.704v-21.23h8.454l-4.64-15.68h-28.044l-5.361 15.68h7.526v21.23h-40.313l-0.00023-21.23h6.1862l22.477-63.62h-8.558v-21.033zm100.84 0h51.03l37.53 61.653v-40.62h-10v-21.033h43.41v21.033h-8.45v84.85h-39.7l-40.62-65.78v44.55h10.31v21.23h-43.51v-21.23h8.45v-63.517h-8.45v-21.136zm-67.534 26.395l-10.826 30.208h20.002l-9.176-30.208zm201.46-95.062v242.5h251.88v-242.5l-251.88 0.000003675zm3.4 68.667h60.73v21.136h-8.45v63.517h8.45v21.23h-60.73v-21.23h8.46v-63.517h-8.46v-21.136zm72.9 0h51.34v21.033h-6.8l-21.24 21.76 35.78 41.86h2.47v21.23h-60.21v-21.23h7.83l-27.53-33.41 29.49-30.21h-11.13v-21.033zm62.37 0h103.01v32.893h-26.61v-11.757h-24.12v21.547h20.72v20.83h-20.72v21.14h24.12v-13.41h26.61v34.64h-103.01v-21.23h8.46v-63.517h-8.46v-21.136z" fill-rule="evenodd" fill="#db281e"/></svg>
