<svg xmlns="http://www.w3.org/2000/svg" xmlns:xlink="http://www.w3.org/1999/xlink" width="334.522" height="83.267" viewBox="0 0 334.522 83.267">
  <defs>
    <filter id="Path_33" x="28.535" y="0" width="278.187" height="75.51" filterUnits="userSpaceOnUse">
      <feOffset dy="2" input="SourceAlpha"/>
      <feGaussianBlur stdDeviation="1.5" result="blur"/>
      <feFlood flood-opacity="0.29"/>
      <feComposite operator="in" in2="blur"/>
      <feComposite in="SourceGraphic"/>
    </filter>
  </defs>
  <g id="Component_6_1" data-name="Component 6 – 1" transform="translate(0 2.5)">
    <path id="Path_29" data-name="Path 29" d="M410.427,163.729a97.25,97.25,0,0,1,56.22,9.536,150.66,150.66,0,0,0-3.859-22.6,111.341,111.341,0,0,1,20.268-10.732,135.161,135.161,0,0,0-68.617-18.48A195.777,195.777,0,0,0,410.427,163.729Z" transform="translate(-148.535 -92.498)" fill="#c63d41"/>
    <g id="Group_21" data-name="Group 21" transform="translate(0 28.955)">
      <path id="Path_30" data-name="Path 30" d="M130.336,163.729a97.252,97.252,0,0,0-56.221,9.536,150.563,150.563,0,0,1,3.859-22.6,111.392,111.392,0,0,0-20.268-10.732,135.158,135.158,0,0,1,68.617-18.48A195.872,195.872,0,0,1,130.336,163.729Z" transform="translate(-57.706 -121.453)" fill="#c63d41"/>
    </g>
    <path id="Path_31" data-name="Path 31" d="M121.991,166.76a41.54,41.54,0,0,1,24.9,4.842l.956-20.047Z" transform="translate(-74.261 -100.25)" fill="#943132"/>
    <path id="Path_32" data-name="Path 32" d="M435.382,167.528s-9.366-3.262-24.739,4.987V156.13Z" transform="translate(-148.596 -101.428)" fill="#943132"/>
    <g transform="matrix(1, 0, 0, 1, 0, -2.5)" filter="url(#Path_33)">
      <path id="Path_33-2" data-name="Path 33" d="M236.792,82.455A435.515,435.515,0,0,0,102.2,103.772q7.342,22.6,14.684,45.193a388.037,388.037,0,0,1,239.819,0l14.684-45.193A435.518,435.518,0,0,0,236.792,82.455Z" transform="translate(-69.16 -79.96)" fill="#e3444a"/>
    </g>
    <g id="Group_23" data-name="Group 23" transform="translate(48.263 10.476)">
      <g id="Group_22" data-name="Group 22">
        <path id="Path_34" data-name="Path 34" d="M144.579,136.586a8.544,8.544,0,0,1-1.191,1.065,16.52,16.52,0,0,1-1.566,1.042,17.131,17.131,0,0,1-1.767.909,14.347,14.347,0,0,1-6.777,1.222,11.675,11.675,0,0,1-4.352-1.194,10.888,10.888,0,0,1-3.424-2.7,11.616,11.616,0,0,1-2.187-3.974,11.4,11.4,0,0,1-.541-4.825,11.106,11.106,0,0,1,1.437-4.393,11.974,11.974,0,0,1,3.124-3.519,13.263,13.263,0,0,1,4.426-2.208,13.98,13.98,0,0,1,3.651-.571,12.875,12.875,0,0,1,3.314.349q-.118.76-.233,1.518a10.117,10.117,0,0,0-1.939-.279,14.327,14.327,0,0,0-2.125.047,11.413,11.413,0,0,0-2.069.391,11.791,11.791,0,0,0-3.971,1.969,10.412,10.412,0,0,0-2.712,3.066,9.566,9.566,0,0,0-1.227,3.765,9.781,9.781,0,0,0,.445,4.081,10.09,10.09,0,0,0,1.909,3.5,9.7,9.7,0,0,0,2.982,2.376,9.84,9.84,0,0,0,3.761,1.052,11.882,11.882,0,0,0,4.283-.482,14.511,14.511,0,0,0,2.694-1.1,9.431,9.431,0,0,0,2.258-1.584l-1.652-6.069q-2.586.7-5.163,1.446-.208-.721-.415-1.442,3.38-.973,6.775-1.881Q143.452,132.376,144.579,136.586Z" transform="translate(-122.709 -101.942)" fill="#fdf2db"/>
        <path id="Path_35" data-name="Path 35" d="M154.58,112.74a10.326,10.326,0,0,1,2.766-.284,7.77,7.77,0,0,1,2.686.558,5.958,5.958,0,0,1,2.2,1.548,5.8,5.8,0,0,1,1.3,2.688,7.662,7.662,0,0,1,.138,2.5,5.869,5.869,0,0,1-.812,2.392,6.592,6.592,0,0,1-1.95,2.02,9.875,9.875,0,0,1-3.323,1.382q-1.79.435-3.577.888l2.339,9.222q-.776.2-1.551.4-2.834-10.973-5.67-21.948Q151.85,113.4,154.58,112.74Zm2.553,11.372a8.075,8.075,0,0,0,2.769-1.155,4.9,4.9,0,0,0,1.524-1.633,4.662,4.662,0,0,0,.567-1.848,5.854,5.854,0,0,0-.109-1.792,4.681,4.681,0,0,0-.807-1.781,4.615,4.615,0,0,0-1.473-1.284,5.542,5.542,0,0,0-2.025-.644,6.676,6.676,0,0,0-2.41.166q-2.015.488-4.026,1,1.247,4.92,2.5,9.841Q155.384,124.537,157.133,124.112Zm3.5-.111q4.391,4.269,8.613,8.636-.909.195-1.815.4-4.258-4.326-8.685-8.553Q159.685,124.237,160.629,124Z" transform="translate(-129.512 -100.656)" fill="#fdf2db"/>
        <path id="Path_36" data-name="Path 36" d="M176.477,130.842q2.3-12.591,5.252-25.176l.137-.025q7.275,10.679,13.937,21.607-.883.139-1.766.283-5.89-9.763-12.259-19.341.52-.407,1.042-.811-2.663,11.559-4.781,23.131Q177.257,130.675,176.477,130.842Zm2.861-9.756q5.154-1.034,10.33-1.92.354.685.706,1.37-5.581.948-11.138,2.069Q179.286,121.845,179.338,121.086Z" transform="translate(-136.556 -98.902)" fill="#fdf2db"/>
        <path id="Path_37" data-name="Path 37" d="M222.818,123.855q-10.017-9.135-21-17.687l.394-.382q1.481,9.85,2.96,19.7-.772.115-1.543.232-1.75-11.44-3.5-22.881l.1-.016q11.106,8.576,21.246,17.765l-.41.17q-1.035-9.923-2.07-19.846.806-.082,1.613-.162,1.136,11.549,2.273,23.1Z" transform="translate(-142.647 -97.643)" fill="#fdf2db"/>
        <path id="Path_38" data-name="Path 38" d="M254.291,121.767q-9.4-9.757-19.8-19l.417-.356q.848,9.924,1.692,19.85-.775.065-1.551.133-1.013-11.529-2.026-23.058l.1-.009q10.516,9.269,20.038,19.09l-.42.144q-.4-9.97-.8-19.938.809-.031,1.619-.059.394,11.6.79,23.2Z" transform="translate(-151.118 -97.081)" fill="#fdf2db"/>
        <path id="Path_39" data-name="Path 39" d="M270.382,105.551l-.12,1.182.731-.9q4-4.368,8.2-8.648,3.245.036,6.49.127-5.394,5.119-10.5,10.385,5.115,6.484,9.875,13.1-2.981-.085-5.963-.119-3.621-5.054-7.445-10.035-.595.58-1.186,1.162l.107,8.875q-2.382.029-4.764.088-.3-11.744-.593-23.49,2.537-.065,5.074-.1Q270.332,101.369,270.382,105.551Z" transform="translate(-159.406 -96.724)" fill="#fdf2db"/>
        <path id="Path_40" data-name="Path 40" d="M288.313,120.574q5.632-12.1,11.989-24.009l.276.014q5.114,12.49,9.492,25.1-2.716-.221-5.435-.4-2.863-8.8-6.058-17.545,1.835-1.065,3.692-2.112-4.883,9.478-9.323,19.075Q290.63,120.623,288.313,120.574Zm7.7-8.258q3.663.15,7.325.373.726,2,1.434,3.994-5.194-.341-10.4-.533Q295.191,114.232,296.016,112.317Z" transform="translate(-165.357 -96.565)" fill="#fdf2db"/>
        <path id="Path_41" data-name="Path 41" d="M317.485,121.929q.988-12.188,1.974-24.376l.034,0q6.313,9.8,11.928,19.794-.989-.342-1.982-.679,7.708-8.225,16.052-16.116l.069.01q-1.815,12.093-3.631,24.185-2.33-.35-4.664-.669.95-6.943,1.9-13.886-.011,1.207-.025,2.414-4.907,5.028-9.57,10.182l-.065-.007q-3.488-6.088-7.243-12.107.517-1.059,1.039-2.116-.644,6.882-1.289,13.764Q319.748,122.113,317.485,121.929Z" transform="translate(-172.869 -96.819)" fill="#fdf2db"/>
        <path id="Path_42" data-name="Path 42" d="M365.141,104.732a12.633,12.633,0,0,1,5.065,1.93,7.253,7.253,0,0,1,2.716,3.334,7.576,7.576,0,0,1,.27,4.338,9.686,9.686,0,0,1-1.025,2.74,7.715,7.715,0,0,1-1.936,2.3,7.139,7.139,0,0,1-2.954,1.358,10.379,10.379,0,0,1-4.1-.034q-1.7-.306-3.4-.6-.626,3.666-1.253,7.333-2.324-.4-4.653-.764,1.829-11.606,3.657-23.212Q361.337,104.054,365.141,104.732Zm-1.2,11.527a4.189,4.189,0,0,0,1.886-.028,3.229,3.229,0,0,0,1.313-.7,3.79,3.79,0,0,0,.815-1.031,3.688,3.688,0,0,0,.38-1,5.138,5.138,0,0,0,.06-.947,3.65,3.65,0,0,0-.263-1.269,2.929,2.929,0,0,0-.936-1.215,4.334,4.334,0,0,0-1.963-.782q-1.753-.316-3.507-.617-.6,3.494-1.195,6.987Q362.238,115.951,363.942,116.258Z" transform="translate(-182.238 -98.339)" fill="#fdf2db"/>
        <path id="Path_43" data-name="Path 43" d="M381.3,107.848q8.53,1.762,16.995,3.914-.551,2.166-1.1,4.332-5.948-1.514-11.932-2.831l-1.078,4.9q5.226,1.15,10.425,2.453-.542,2.167-1.086,4.336-5.138-1.287-10.3-2.424-.546,2.479-1.092,4.958,5.979,1.316,11.923,2.837l-1.108,4.33q-8.165-2.088-16.4-3.788Z" transform="translate(-188.079 -99.471)" fill="#fdf2db"/>
        <path id="Path_44" data-name="Path 44" d="M420.75,143.137q-6.2-10.471-13.287-20.721.608.56,1.212,1.123-1.846,6.942-3.7,13.884-2.318-.635-4.643-1.238l6.137-23.64.2.053q7.2,10.154,13.54,20.552-.445-.374-.892-.747,2.126-7.012,4.247-14.025,2.435.755,4.86,1.544-3.778,11.629-7.557,23.259Z" transform="translate(-194.205 -100.68)" fill="#fdf2db"/>
      </g>
    </g>
  </g>
</svg>
